<?xml version="1.0" encoding="utf-8"?>
<svg xmlns="http://www.w3.org/2000/svg" xmlns:xlink="http://www.w3.org/1999/xlink" width="834.982" height="522.873" viewBox="0 0 834.982 522.873"><defs><linearGradient id="a" x1="0.533" y1="0.557" x2="0.964" y2="0.806" gradientUnits="objectBoundingBox"><stop offset="0" stop-color="#a2bbce"/><stop offset="1" stop-color="#6d7e8c"/></linearGradient><linearGradient id="b" x1="0.109" x2="1" y2="1" gradientUnits="objectBoundingBox"><stop offset="0" stop-color="#8c9eab"/><stop offset="1" stop-color="#58636a"/></linearGradient><linearGradient id="c" x1="0.321" y1="0" x2="1" y2="1" xlink:href="#a"/><linearGradient id="d" x1="0.808" y1="0.793" x2="0.105" y2="0.245" gradientUnits="objectBoundingBox"><stop offset="0" stop-color="#2b32b2"/><stop offset="1" stop-color="#0052d4"/></linearGradient><linearGradient id="e" x1="0.823" y1="0.868" x2="0.154" y2="0.225" xlink:href="#d"/><linearGradient id="f" x1="0.691" y1="0.039" x2="0.661" y2="0.733" gradientUnits="objectBoundingBox"><stop offset="0" stop-color="#1361ce"/><stop offset="1" stop-color="#0d3b7a"/></linearGradient><linearGradient id="g" x1="0.163" y1="0.166" x2="0.856" y2="0.734" gradientUnits="objectBoundingBox"><stop offset="0" stop-color="#3680fc"/><stop offset="1" stop-color="#2d518f"/></linearGradient><linearGradient id="h" x1="0.046" y1="0.037" x2="0.905" y2="0.973" gradientUnits="objectBoundingBox"><stop offset="0" stop-color="#717e91"/><stop offset="1" stop-color="#222"/></linearGradient></defs><g transform="translate(-1016 -165.5)"><circle cx="260.394" cy="260.394" r="260.394" transform="translate(1079.213 165.5)" fill="#0052d4" opacity="0.05"/><circle cx="260.394" cy="260.394" r="260.394" transform="translate(1016 165.5)" fill="#2b32b2" opacity="0.05"/><circle cx="260.394" cy="260.394" r="260.394" transform="translate(1049 165.5)" fill="#0052d4" opacity="0.05"/><g transform="translate(1663 328.227)" opacity="0.25"><path d="M43.945,15.8C46.777,11.759,52.031,1.506,56.016.063c2.567-.929,1.818,8.683,1.85,10.515a153.629,153.629,0,0,1-1.419,21.167C54.911,44.426,49.889,55.719,43,66.512c-3.544,5.553-7.7,11.174-13.46,14.639-2.65,1.6-5.84,1.863-8.457,3.238-3.048,1.6-1.388.307-2.762,3.483-1.908,4.41-2.518,10.1-3.4,14.806-4.053,21.6-13.865,135.8-12.164,157.774.151,1.948-2.565,2.413-2.7.036-.721-12.607,5.515-99.913,8.661-128.464S15.048,78.248,18.24,68.37c3.873-11.984,10.867-26.4,16.689-37.571A132.891,132.891,0,0,1,43.945,15.8Z" transform="translate(76.136 59.292)" fill="#69a1ac"/><path d="M67.656,1.535C75.024-3.874,83,6.334,76.332,11.744c-3.686,2.99-7.539,1.927-9.708-.565C65.216,12.9,63.9,14.69,62.631,16.206c-3.858,4.619-7.505,9.349-10.991,14.189C44.4,40.45,38.2,51.072,31.708,61.5c-6.4,10.292-12.754,20.637-18.557,31.19C8.235,101.632,1.683,112.151,0,121.953c2.554-20.788,12.244-40.77,23.783-59.1,11.445-18.176,24.58-38.026,42.3-52.37A6.277,6.277,0,0,1,67.656,1.535Z" transform="translate(73.441 213.586)" fill="#c1dee2"/><path d="M1.289.021c4.123.806,10.86,10.133,14.258,13.687A133.1,133.1,0,0,1,26.7,27.147a227.314,227.314,0,0,1,19.741,32.2A299.283,299.283,0,0,1,68.41,116.507,235.8,235.8,0,0,1,75.075,154c.238,2.374,2.727,20.676-.86,21.17-3.226.444-2.229-13.9-2.385-15.848C70.071,137.313,64.8,115.9,57.472,95.154c-1.6-4.519-3.08-10.054-5.633-14.121C50,78.1,51.826,79.126,48.594,78.017c-2.775-.952-5.936-.72-8.777-1.886C33.645,73.6,28.7,68.687,24.371,63.744c-8.419-9.606-15.09-20-18.568-32.306A155.542,155.542,0,0,1,1.117,10.714C.863,8.9-1.367-.5,1.289.021Z" transform="translate(0 164.4)" fill="#69a1ac"/><path d="M9.474,9.241A373.625,373.625,0,0,1,46.007,95.727C51,113.883,54.492,132.514,57.961,151.01c5.371,28.639,10.452,57.276,11.9,86.424,1.454,29.317,4.329,63.13-5.27,91.367,4.8-28.668.23-59.183-.578-88.028-.386-13.771-1.506-27.406-2.974-41.1-1.425-13.28-3.753-26.5-5.921-39.673q-1.584-9.625-3.294-19.228c-.337-1.911-.479-7.58-1.691-8.885s-7.443-1.849-9.4-2.813a50.45,50.45,0,0,1-10.911-7.613,87.154,87.154,0,0,1-16.053-20.08C3.794,84.736-.194,64.419.007,45.139.046,41.4,6.066,1.085,3.648.53Q3.867.274,4.062,0,6.807,4.6,9.474,9.241Z" transform="translate(8.085)" fill="#89c5cc"/><path d="M111.069,2.619c.24-.346,1.8-2.749,1.014-2.6,1.6-.313-2.2,2.651,1.785.832-1.892,1.787-.8,4.108-.775,6.512a58.318,58.318,0,0,1-1.347,11.6,79.52,79.52,0,0,1-5.405,17.527c-5.476,12.24-14.774,24.023-25.812,31.676-5.449,3.778-10.79,5.065-17.005,6.8C59.6,76.07,59.286,78.1,57.2,81.91c-4.338,7.934-8.6,15.84-12.425,24.042-4.568,9.794-9,19.6-13.187,29.565C17.5,169.088,6.027,203.869,0,239.863c-.147-21.211,4.759-43.057,10.949-63.275,4.509-14.73,10.378-28.93,16.639-42.986,1.517-3.405,3.816-7.785,4.46-11.545.451-2.634-.928-5.167-1.559-7.942a83.107,83.107,0,0,1-.124-33.775C32.751,68.361,39.644,62.8,51.3,61.1c4.264-.621,9.685-.393,13.595-2.211,4.26-1.98,6.018-8.488,8.44-12.666A172.26,172.26,0,0,1,96.454,14.786a74.981,74.981,0,0,1,7.906-7.273C106.128,6.1,109.864,4.359,111.069,2.619Z" transform="translate(74.115 103.761)" fill="#89c5cc"/><path d="M.827,3.86A3.369,3.369,0,0,1,4.16,0H45.541a3.369,3.369,0,0,1,3.333,3.86l-3.2,21.688A13.475,13.475,0,0,1,32.344,37.057H17.357A13.475,13.475,0,0,1,4.026,25.548Z" transform="translate(50.275 320.715)" fill="#c1dee2"/></g><g transform="translate(1639 599)"><path d="M0,0C0,21.287,1.68,38.544,24.228,38.544S48.456,21.287,48.456,0" transform="translate(15.418 48.456)" fill="#f2f2f2"/><path d="M46.353,35.174a44.567,44.567,0,0,0-2.214,4.366,59.743,59.743,0,0,1,.606-9.228c.786-5.329,1.988-10.631,3.116-15.924.811-3.8.76-10.637,3.839-13.668.844-.655,1.047.63,1.047,1.188.011.118,0-2.277-.822-1.86-4.871,2.516-6.449,10.425-8.008,14.386a76.214,76.214,0,0,0-5.008,17.7,39.656,39.656,0,0,0-.336,4.554c-.166-.405-.321-.814-.493-1.218a82.22,82.22,0,0,0-11.337-18.96C25.578,15.054,10.934.649,9.788,2.854a1.52,1.52,0,0,0,.711.8c.021.024.022.011.009-.025.86,1.389,3.305,3.535,4.067,4.752a91.953,91.953,0,0,1,4.921,9.5c3.2,6.739,6.166,13.546,9.043,20.368.67,1.589,1.368,3.169,2.08,4.744C23.277,32.4,13.483,22.791,0,17.287c4.6,2.343,7.624,6.75,10.734,10.125,3.751,4.071,7.7,8.032,11.459,12.1,4.432,4.8,9.648,9.848,13.911,15.156,4.13,8.67,8.142,17.349,10.62,26.463-1.015-3.149-.08-7.5-.253-10.8A73,73,0,0,0,45.6,62.48a16.1,16.1,0,0,1,1.173,3.443c-.186-1.834-.4-3.656-.629-5.468.59-1.7,1.169-3.281,1.56-4.585a117.8,117.8,0,0,1,7.642-19.677A175.66,175.66,0,0,1,65.567,18.735c1.754-2.646,3.532-5.282,5.3-7.923,1.156-1.729,2.257-4.5,3.867-6.153-10.407,9.515-21.777,19.1-28.38,30.515" transform="translate(0 0)" fill="#f2f2f2"/></g><g transform="translate(-5 7)"><g transform="translate(-957.737 4647)"><rect width="455" height="27" transform="translate(2160.737 -4349)" fill="#003580"/><rect width="59" height="13" rx="6.5" transform="translate(2172.737 -4342)" fill="#b1d0fc"/><rect width="51" height="8" rx="4" transform="translate(2305.737 -4339)" fill="#d7d7d7"/><rect width="51" height="8" rx="4" transform="translate(2368.737 -4339)" fill="#d7d7d7"/><rect width="50" height="8" rx="4" transform="translate(2429.737 -4339)" fill="#d7d7d7"/><rect width="50" height="8" rx="4" transform="translate(2243.737 -4339)" fill="#d7d7d7"/><rect width="455" height="267" transform="translate(2160.737 -4322)" fill="#f2f2f2"/><rect width="100" height="25" transform="translate(2172.737 -4280)" fill="#fff"/><rect width="100" height="25" transform="translate(2280.737 -4280)" fill="#fff"/><rect width="99" height="25" transform="translate(2391.737 -4280)" fill="#fff"/><rect width="99" height="25" transform="translate(2499.737 -4280)" fill="#fff"/><line x2="100.319" transform="translate(2172.207 -4253.691)" fill="none" stroke="#0074c1" stroke-width="3"/><line x2="100.319" transform="translate(2281.218 -4253.691)" fill="none" stroke="#388e3c" stroke-width="3"/><line y1="0.191" x2="98.312" transform="translate(2392.237 -4253.691)" fill="none" stroke="#0074c1" stroke-width="3"/><line x2="100.319" transform="translate(2499.477 -4253.691)" fill="none" stroke="#da6802" stroke-width="3"/><rect width="455" height="36" transform="translate(2160.737 -4322)" fill="#fff"/><rect width="81" height="9" transform="translate(2172.737 -4313)" fill="#333"/><rect width="33" height="7" transform="translate(2393.737 -4308)" fill="#333"/><line x2="74.014" transform="translate(2352.795 -4295.947)" fill="none" stroke="#0074c1" stroke-width="3"/><rect width="32" height="7" transform="translate(2479.737 -4308)" fill="#333"/><line x2="74.014" transform="translate(2438.942 -4295.947)" fill="none" stroke="#388e3c" stroke-width="3"/><line x2="74.014" transform="translate(2525.782 -4295.947)" fill="none" stroke="#da6802" stroke-width="3"/><rect width="33" height="7" transform="translate(2565.737 -4308)" fill="#333"/><g transform="translate(2172.1 -4236.556)"><line x2="99.956" transform="translate(0.352 0)" fill="none" stroke="#d7d7d7" stroke-width="1"/><line x2="99.956" transform="translate(0.469 17.135)" fill="none" stroke="#d7d7d7" stroke-width="1"/><line x2="99.956" transform="translate(0 34.27)" fill="none" stroke="#d7d7d7" stroke-width="1"/><line x2="99.956" transform="translate(0.469 51.405)" fill="none" stroke="#d7d7d7" stroke-width="1"/></g><g transform="translate(2281.384 -4236.965)"><line x2="98.417" transform="translate(0.347 0)" fill="none" stroke="#d7d7d7" stroke-width="1"/><line x2="98.417" transform="translate(0.462 17.135)" fill="none" stroke="#d7d7d7" stroke-width="1"/><line x2="98.417" transform="translate(0 34.27)" fill="none" stroke="#d7d7d7" stroke-width="1"/><line x2="98.417" transform="translate(0.462 51.405)" fill="none" stroke="#d7d7d7" stroke-width="1"/></g><g transform="translate(2499.477 -4237.608)"><line x2="99.745" transform="translate(0.351 0)" fill="none" stroke="#d7d7d7" stroke-width="1"/><line x2="99.745" transform="translate(0.468 17.135)" fill="none" stroke="#d7d7d7" stroke-width="1"/><line x2="99.745" transform="translate(0 34.27)" fill="none" stroke="#d7d7d7" stroke-width="1"/><line x2="99.745" transform="translate(0.468 51.405)" fill="none" stroke="#d7d7d7" stroke-width="1"/></g><g transform="translate(2411.282 -4240.617)"><path d="M0,26.367,11.582,0A28.822,28.822,0,0,1,11.4,52.956Z" transform="translate(28.691 2.371)" fill="#00a8c4"/><path d="M12.155,28.746h0L0,2.758a28.884,28.884,0,0,1,24.24-.182L12.178,28.8Z" transform="translate(16.493)" fill="#e83e26"/><path d="M0,14.906,24.568,0,37.125,26.1a28.7,28.7,0,0,1-12.409,2.8A28.8,28.8,0,0,1,0,14.906ZM22.585,1.24,24.539.057l0,.007.012-.028,0,0Z" transform="translate(4.093 28.714)" fill="#e68a00"/><path d="M0,26.146A28.816,28.816,0,0,1,16.694,0L28.669,26.069l-.025.028.005-.012,0,0-1.97,1.208,1.955-1.183,0,0L9.575,47.594A28.737,28.737,0,0,1,0,26.146Z" transform="translate(0 2.664)" fill="#88b23a"/><path d="M0,21.387,19.181.087l.05-.03,0,.006L8.808,26.893A28.812,28.812,0,0,1,0,21.387ZM19.26,0l-.013.033h0l-.036.022Z" transform="translate(9.401 28.714)" fill="#f3da61"/></g><rect width="16" height="18" transform="translate(2175.737 -4203)" fill="#90ee90"/><rect width="15" height="34" transform="translate(2202.737 -4219)" fill="#90ee90"/><rect width="15" height="51" transform="translate(2227.737 -4236)" fill="#90ee90"/><rect width="17" height="22" transform="translate(2251.737 -4207)" fill="#90ee90"/><rect width="13" height="16" transform="translate(2285.737 -4201)" fill="plum"/><path d="M0,0H16V33H0Z" transform="translate(2309.737 -4218)" fill="plum"/><rect width="15" height="49" transform="translate(2336.737 -4234)" fill="plum"/><rect width="16" height="21" transform="translate(2360.737 -4206)" fill="plum"/><line x2="22.478" transform="translate(2509.194 -4185.989)" fill="none" stroke="#eec4a2" stroke-width="2"/><line y1="34.912" x2="36.526" transform="translate(2531.672 -4220.901)" fill="none" stroke="#eec4a2" stroke-width="2"/><line x2="22.478" transform="translate(2568.198 -4220.901)" fill="none" stroke="#eec4a2" stroke-width="2"/><ellipse cx="2" cy="2.5" rx="2" ry="2.5" transform="translate(2528.737 -4189)" fill="#dd8946"/><rect width="266" height="97" rx="15" transform="translate(2172.737 -4168)" fill="#fff"/><rect width="144" height="97" rx="15" transform="translate(2454.737 -4169)" fill="#fff"/><path d="M17.579,12.549c-2.11-2.125.194-7.464-4.51-7.58-4.7.116-2.4,5.455-4.51,7.58-.97.977.835,1.479,3.09,1.622a1.42,1.42,0,0,0,2.8,0C16.724,14.033,18.554,13.531,17.579,12.549Z" transform="translate(2581.994 -4345.4)" fill="#fff"/><ellipse cx="2" cy="2.5" rx="2" ry="2.5" transform="translate(2594.737 -4342)" fill="#c00"/><circle cx="2" cy="2" r="2" transform="translate(2565.737 -4222)" fill="#dd8946"/><rect width="64" height="4" transform="translate(2187.737 -4158)" fill="#333"/></g><g transform="translate(1175 -705.362)"><path d="M40.016,980.858A34.193,34.193,0,0,0,6,1014.874V1282.84a34.194,34.194,0,0,0,34.016,34.016H215.379l-10.955,45.354H152.443a11.339,11.339,0,0,0,0,22.677H361.63a11.339,11.339,0,0,0,0-22.677H306.471l-12.628-45.354H470.879a34.194,34.194,0,0,0,34.016-34.016V1014.875a34.193,34.193,0,0,0-34.016-34.016H40.016Zm0,22.677H470.879a11.074,11.074,0,0,1,11.339,11.338V1282.84a11.073,11.073,0,0,1-11.339,11.338H40.016a11.073,11.073,0,0,1-11.339-11.338V1014.874A11.074,11.074,0,0,1,40.016,1003.536Z" transform="translate(0 0)" fill="url(#a)"/><path d="M182.315,1262.952h83.458l9.841,45.556H174.508Z" transform="translate(30.551 53.954)" fill="url(#b)"/><rect width="237" height="24" rx="12" transform="translate(137 1361.362)" fill="url(#c)"/></g><g transform="translate(1148.993 553)"><path d="M89.624,39.977a2.927,2.927,0,0,0-2.9-2.212,9.891,9.891,0,0,1-6.8-17.273,2.5,2.5,0,0,0,.279-3.408,45.319,45.319,0,0,0-7.13-7.193,2.509,2.509,0,0,0-3.426.279,10.331,10.331,0,0,1-11.2,2.527,10.017,10.017,0,0,1-6.06-9.765A2.518,2.518,0,0,0,50.177.3,45.292,45.292,0,0,0,40.07.27a2.509,2.509,0,0,0-2.23,2.563,9.99,9.99,0,0,1-6.159,9.585A10.43,10.43,0,0,1,20.549,9.891a2.5,2.5,0,0,0-3.39-.279,44.635,44.635,0,0,0-7.265,7.193,2.527,2.527,0,0,0,.261,3.426A9.954,9.954,0,0,1,12.7,31.471a10.394,10.394,0,0,1-9.783,6.042,2.446,2.446,0,0,0-2.59,2.212,44.194,44.194,0,0,0,0,10.215c.117,1.313,1.645,2.212,2.931,2.212A9.891,9.891,0,0,1,12.5,58.32,10.008,10.008,0,0,1,9.993,69.434a2.5,2.5,0,0,0-.279,3.4,44.473,44.473,0,0,0,7.112,7.193,2.509,2.509,0,0,0,3.426-.261,10.367,10.367,0,0,1,11.222-2.545,9.954,9.954,0,0,1,6.069,9.756,2.518,2.518,0,0,0,2.212,2.635,46.318,46.318,0,0,0,5.179.3,42.259,42.259,0,0,0,4.936-.279,2.509,2.509,0,0,0,2.23-2.581,9.972,9.972,0,0,1,6.141-9.585,10.376,10.376,0,0,1,11.1,2.563,2.5,2.5,0,0,0,3.39.279A45.346,45.346,0,0,0,80,73.112a2.509,2.509,0,0,0-.261-3.426,9.891,9.891,0,0,1,6.69-17.309h.558a2.518,2.518,0,0,0,2.635-2.212,46.073,46.073,0,0,0,0-10.188ZM45.034,60.038A14.989,14.989,0,1,1,60.023,45.049,14.989,14.989,0,0,1,45.034,60.038Z" transform="translate(0 0)" fill="url(#d)"/></g><g transform="translate(1099.959 525.975)"><path d="M60.749,27.093a1.983,1.983,0,0,0-1.962-1.5A6.7,6.7,0,0,1,54.18,13.888a1.694,1.694,0,0,0,.189-2.31A30.713,30.713,0,0,0,49.537,6.7a1.7,1.7,0,0,0-2.322.189A7,7,0,0,1,39.622,8.6a6.789,6.789,0,0,1-4.107-6.618A1.706,1.706,0,0,0,34.016.2,30.7,30.7,0,0,0,27.166.183,1.7,1.7,0,0,0,25.655,1.92a6.77,6.77,0,0,1-4.174,6.5A7.069,7.069,0,0,1,13.936,6.7a1.694,1.694,0,0,0-2.3-.189A30.25,30.25,0,0,0,6.715,11.39a1.712,1.712,0,0,0,.177,2.322,6.746,6.746,0,0,1,1.725,7.617,7.044,7.044,0,0,1-6.63,4.1,1.658,1.658,0,0,0-1.755,1.5,29.951,29.951,0,0,0,0,6.923,1.96,1.96,0,0,0,1.987,1.5,6.7,6.7,0,0,1,6.264,4.18,6.782,6.782,0,0,1-1.7,7.532,1.694,1.694,0,0,0-.189,2.3,30.14,30.14,0,0,0,4.82,4.875,1.7,1.7,0,0,0,2.322-.177,7.026,7.026,0,0,1,7.605-1.725,6.746,6.746,0,0,1,4.113,6.612,1.706,1.706,0,0,0,1.5,1.785,31.39,31.39,0,0,0,3.51.2,28.64,28.64,0,0,0,3.346-.189,1.7,1.7,0,0,0,1.511-1.749,6.758,6.758,0,0,1,4.162-6.5,7.032,7.032,0,0,1,7.526,1.737,1.694,1.694,0,0,0,2.3.189,30.732,30.732,0,0,0,4.924-4.875,1.7,1.7,0,0,0-.177-2.322A6.7,6.7,0,0,1,58.586,35.5h.378A1.706,1.706,0,0,0,60.749,34a31.225,31.225,0,0,0,0-6.9ZM30.53,40.689A10.158,10.158,0,1,1,40.688,30.53,10.158,10.158,0,0,1,30.53,40.689Z" transform="translate(0 0)" fill="url(#e)"/></g><g transform="translate(-145.481 -444.827)"><g transform="translate(1591.65 639.577)"><g transform="translate(109.297 58.154)"><path d="M35.6,52.553v2.888H33.353A4.656,4.656,0,0,0,28.7,60.093v7.742H83.731V60.093a4.656,4.656,0,0,0-4.653-4.653H76.832V52.553A4.656,4.656,0,0,0,72.179,47.9H40.252A4.656,4.656,0,0,0,35.6,52.553Z" transform="translate(-25.17 -47.9)" fill="#1a509c"/><path d="M86.665,60.2H28.1a1.6,1.6,0,0,0,0,3.209H86.665a1.6,1.6,0,0,0,0-3.209Z" transform="translate(-26.5 -40.466)" fill="#113c79"/></g><path d="M1.425,80.266A7.471,7.471,0,0,1,3.275,69.7L53.05,36.119q-1.427-1.944-3.077-4.189c.02-.127-2-2.656-2.959-3.857a4.914,4.914,0,0,1-6.7-1.329,5.679,5.679,0,0,1,1.2-7.6L64.67,1.081a4.906,4.906,0,0,1,7.156,1.133,5.688,5.688,0,0,1,.218,5.951l3.588,5.129,12.57,17.3,1.719,2.431a5.313,5.313,0,0,1,6.769,1.558,5.257,5.257,0,0,1-1.165,7.352L71.779,59.177a5.26,5.26,0,0,1-7.354-1.165,5.063,5.063,0,0,1,.04-6.21c-.69-.968-2.17-3.031-5.057-6.993L12.052,81.773a7.184,7.184,0,0,1-4.573,1.64A7.472,7.472,0,0,1,1.425,80.266Z" transform="translate(29.893 0) rotate(21)" fill="url(#f)"/></g></g><path d="M25.42,41.113h8.447c-2.089,4.88-5.087,8.051-8.447,8.394Zm-9.652,0h8.447v8.394C20.854,49.164,17.856,45.993,15.768,41.113Zm19.36,0h8.328a24.68,24.68,0,0,1-13.994,8.014A18.7,18.7,0,0,0,35.128,41.113Zm-28.946,0h8.326a18.694,18.694,0,0,0,5.665,8.014A24.675,24.675,0,0,1,6.182,41.113ZM35.6,39.908a41.055,41.055,0,0,0,2.149-9.3H48.933a24.9,24.9,0,0,1-4.486,9.3Zm-10.175,0v-9.3H36.531a39.8,39.8,0,0,1-2.181,9.3Zm-10.136,0a39.842,39.842,0,0,1-2.18-9.3H24.215v9.3Zm-10.1,0A24.9,24.9,0,0,1,.7,30.61H11.891a41.1,41.1,0,0,0,2.148,9.3ZM37.872,29.4c.14-1.51.217-3.064.217-4.651s-.077-3.14-.217-4.649H49.194a24.689,24.689,0,0,1,0,9.3Zm-12.452,0V20.1H36.664c.14,1.507.22,3.059.22,4.649S36.8,27.9,36.663,29.4Zm-12.45,0c-.139-1.508-.219-3.061-.219-4.651s.079-3.142.219-4.649H24.215v9.3ZM.443,29.4a24.64,24.64,0,0,1,0-9.3h11.32c-.14,1.509-.217,3.062-.217,4.649s.077,3.141.217,4.651Zm37.3-10.5A41.126,41.126,0,0,0,35.6,9.6h8.852a24.922,24.922,0,0,1,4.486,9.3ZM13.1,18.9a39.873,39.873,0,0,1,2.18-9.3h8.931v9.3Zm12.316,0V9.6h8.93a39.83,39.83,0,0,1,2.181,9.3ZM.7,18.9A24.888,24.888,0,0,1,5.188,9.6h8.851a41.306,41.306,0,0,0-2.151,9.3ZM25.42,8.394V0c3.361.343,6.359,3.515,8.447,8.394Zm-9.652,0C17.856,3.515,20.854.343,24.215,0V8.394Zm19.36,0A18.7,18.7,0,0,0,29.462.38,24.668,24.668,0,0,1,43.454,8.393Zm-28.948,0A24.679,24.679,0,0,1,20.174.38a18.7,18.7,0,0,0-5.666,8.014Z" transform="translate(1145.003 412.586)" fill="url(#g)"/><g transform="matrix(0.995, -0.105, 0.105, 0.995, -21.929, 388.457)"><g transform="matrix(0.995, 0.105, -0.105, 0.995, 1690.932, 362.696)"><rect width="57.455" height="9.013" transform="translate(0 0)" fill="#003580"/><rect width="23.658" height="4.506" rx="2.253" transform="translate(16.899 2.253)" fill="#b1d0fc"/><rect width="57.455" height="86.746" transform="translate(0 9.013)" fill="#f2f2f2"/><rect width="21.405" height="19.152" rx="9.576" transform="translate(18.025 20.278)" fill="#4679c4"/><rect width="21.405" height="3.38" transform="translate(18.025 14.645)" fill="#d43e27"/><rect width="21.405" height="18.025" rx="9.013" transform="translate(18.025 59.835)" fill="#4679c4"/><rect width="21.405" height="4.506" transform="translate(18.025 52.949)" fill="#d43e27"/><rect width="36.05" height="6.759" transform="translate(11.266 42.81)" fill="#c3c3c3"/><rect width="36.05" height="9.013" transform="translate(11.266 80.113)" fill="#c3c3c3"/><line x2="4.929" transform="translate(3.399 3.419)" fill="none" stroke="#fff" stroke-width="1"/><line x2="4.929" transform="translate(3.399 4.936)" fill="none" stroke="#fff" stroke-width="1"/><line x2="4.929" transform="translate(3.399 6.453)" fill="none" stroke="#fff" stroke-width="1"/><path d="M3.371,2.73C2.605,1.964,3.441.042,1.734,0,.027.042.863,1.964.1,2.73c-.352.352.3.533,1.121.584a.516.516,0,0,0,1.017,0C3.06,3.264,3.724,3.084,3.371,2.73Z" transform="translate(49.673 2.882)" fill="#fff"/><ellipse cx="1.127" rx="1.127" transform="translate(50.696 3.38)" fill="#c00"/></g><g transform="translate(1662.045 354.773) rotate(-7)"><path d="M63.693,75.035q0-34.3,0-68.6a9.842,9.842,0,0,0-.156-2.086A6.054,6.054,0,0,0,59.246,0H4.459a2.4,2.4,0,0,1-.4.228A5.635,5.635,0,0,0,.011,5.994v5.838q0,50.974,0,101.9a8.032,8.032,0,0,0,.18,1.846,5.994,5.994,0,0,0,4.268,4.3H59.246c3.309-1.2,4.52-3.6,4.484-7.037C63.621,100.246,63.693,87.647,63.693,75.035ZM31.876,4.028A1.846,1.846,0,1,1,30.03,5.874,1.846,1.846,0,0,1,31.876,4.028Zm2.218,111.491H29.658a3.033,3.033,0,1,1,0-6.066h4.448a3.045,3.045,0,1,1-.012,6.09Zm25.763-10.73H3.8V11.281H59.857Z" transform="translate(26.968 0) rotate(13)" fill="url(#h)"/></g><circle cx="1.127" cy="1.127" r="1.127" transform="matrix(0.995, 0.105, -0.105, 0.995, 1742.235, 370.353)" fill="#e83e26"/></g><g transform="translate(1231 505.962)"><rect width="63" height="11" transform="translate(0 0.038)" fill="#b9b6b6"/><rect width="82" height="11" transform="translate(71 0.038)" fill="#b9b6b6"/><rect width="23" height="11" transform="translate(159 0.038)" fill="#b9b6b6"/><rect width="44" height="11" transform="translate(190 0.038)" fill="#b9b6b6"/></g><g transform="translate(1231 528.991)"><rect width="63" height="11" transform="translate(0 0.009)" fill="#b9b6b6"/><rect width="82" height="11" transform="translate(71 0.009)" fill="#b9b6b6"/><rect width="23" height="11" transform="translate(159 0.009)" fill="#b9b6b6"/><rect width="44" height="11" transform="translate(190 0.009)" fill="#b9b6b6"/></g><g transform="translate(1231 516.709)"><rect width="63" height="12" transform="translate(0 0.291)" fill="#ededed"/><rect width="82" height="12" transform="translate(71 0.291)" fill="#ededed"/><rect width="23" height="12" transform="translate(159 0.291)" fill="#ededed"/><rect width="44" height="12" transform="translate(190 0.291)" fill="#ededed"/></g><g transform="translate(1231 539.738)"><rect width="63" height="11" transform="translate(0 0.262)" fill="#ededed"/><rect width="82" height="11" transform="translate(71 0.262)" fill="#ededed"/><rect width="23" height="11" transform="translate(159 0.262)" fill="#ededed"/><rect width="44" height="11" transform="translate(190 0.262)" fill="#ededed"/></g><g transform="translate(1231 551.253)"><rect width="63" height="11" transform="translate(0 -0.253)" fill="#b9b6b6"/><rect width="82" height="11" transform="translate(71 -0.253)" fill="#b9b6b6"/><rect width="23" height="11" transform="translate(159 -0.253)" fill="#b9b6b6"/><rect width="44" height="11" transform="translate(190 -0.253)" fill="#b9b6b6"/></g><rect width="64" height="4" transform="translate(1511 489)" fill="#333"/><g transform="translate(1511 506)"><rect width="47" height="11" fill="#b9b6b6"/><rect width="62" height="11" transform="translate(53)" fill="#b9b6b6"/></g><g transform="translate(1511 530)"><rect width="47" height="11" fill="#b9b6b6"/><rect width="62" height="11" transform="translate(53)" fill="#b9b6b6"/><rect width="47" height="11" transform="translate(0 21)" fill="#b9b6b6"/><rect width="62" height="11" transform="translate(53 21)" fill="#b9b6b6"/></g><g transform="translate(1511 517.256)"><rect width="47" height="12" transform="translate(0 -0.256)" fill="#ededed"/><rect width="62" height="12" transform="translate(53 -0.256)" fill="#ededed"/></g><g transform="translate(1511 540.773)"><rect width="47" height="11" transform="translate(0 0.227)" fill="#ededed"/><rect width="62" height="11" transform="translate(53 0.227)" fill="#ededed"/></g></g><path d="M19.139,38.278a19.446,19.446,0,0,1-1.957-.1A19.111,19.111,0,0,1,.1,21.1a19.426,19.426,0,0,1,0-3.914A19.111,19.111,0,0,1,17.182.1,19.426,19.426,0,0,1,21.1.1,19.11,19.11,0,0,1,38.18,17.182a19.425,19.425,0,0,1,0,3.914A19.11,19.11,0,0,1,21.1,38.18,19.445,19.445,0,0,1,19.139,38.278Zm0-32.78A13.641,13.641,0,1,0,32.78,19.139,13.656,13.656,0,0,0,19.139,5.5Z" transform="translate(1757 330.5)" fill="#2b32b2" opacity="0.1"/><path d="M39.139,78.278a39.767,39.767,0,0,1-4-.2A39.081,39.081,0,0,1,.2,43.141a39.725,39.725,0,0,1,0-8A39.081,39.081,0,0,1,35.137.2a39.725,39.725,0,0,1,8,0A39.08,39.08,0,0,1,78.076,35.137a39.724,39.724,0,0,1,0,8A39.08,39.08,0,0,1,43.141,78.076,39.767,39.767,0,0,1,39.139,78.278Zm0-67.034A27.895,27.895,0,1,0,67.034,39.139,27.926,27.926,0,0,0,39.139,11.244Z" transform="translate(1678 252.5)" fill="#0052d4" opacity="0.1"/></g></svg>